<svg xmlns="http://www.w3.org/2000/svg" width="20.338" height="20.338" viewBox="0 0 20.338 20.338">
  <g id="vuesax_outline_radar" data-name="vuesax/outline/radar" transform="translate(-556 -188)">
    <g id="radar" transform="translate(556 188)">
      <path id="Vector" d="M9.11,18.228a9.112,9.112,0,0,1-7.9-13.652.637.637,0,0,1,.864-.237l7.347,4.22a.634.634,0,0,1-.627,1.1L2.017,5.771a7.842,7.842,0,1,0,2.39-2.932.636.636,0,1,1-.763-1.017A9.113,9.113,0,1,1,9.11,18.228Z" transform="translate(1.059 1.051)" fill="#292d32"/>
      <path id="Vector-2" data-name="Vector" d="M0,0H20.338V20.338H0Z" fill="none" opacity="0"/>
    </g>
  </g>
</svg>
